<?xml version="1.0" encoding="UTF-8"?>
<svg width="1024px" height="1024px" viewBox="0 0 1024 1024" version="1.1" xmlns="http://www.w3.org/2000/svg" xmlns:xlink="http://www.w3.org/1999/xlink">
    <title>tyfon-type-dark</title>
    <g id="tyfon-type-dark" stroke="none" stroke-width="1" fill="none" fill-rule="evenodd">
        <path d="M620.247715,103.802308 L620.398041,103.666887 L620.398041,103.666887 L620.460739,103.614311 C620.507276,103.57609 620.554657,103.538932 620.602843,103.502864 C620.723481,103.412587 620.848986,103.329237 620.97885,103.253165 L621.229865,103.117891 L621.229865,103.117891 L621.490835,103.000441 L621.490835,103.000441 L621.613149,102.952904 L621.613149,102.952904 L621.847867,102.874272 L621.847867,102.874272 L621.995722,102.832875 L621.995722,102.832875 L622.158857,102.794208 L622.158857,102.794208 L622.435106,102.74493 L622.435106,102.74493 L622.612535,102.723715 L622.612535,102.723715 C622.74105,102.711287 622.869988,102.705 623,102.705 C625.142195,102.705 626.891079,104.388968 626.995105,106.50536 L627,106.705 L627,319.507878 C627,320.816066 627.160438,322.119318 627.47772,323.388448 C629.594763,331.856621 638.096948,337.045711 646.566895,335.105292 L646.88057,335.030158 L725.794941,315.301565 C728.889821,314.527845 732.145337,314.696945 735.1434,315.78715 C743.345412,318.7697 747.625645,327.761464 744.820718,335.983771 L744.712206,336.291734 L634.759174,638.662572 C634.184353,640.243329 632.682026,641.2956 631,641.2956 C628.857805,641.2956 627.108921,639.611632 627.004895,637.495241 L627,637.2956 L627,424.492723 C627,423.348057 626.877165,422.207172 626.633902,421.089619 L626.52228,420.612153 C624.405237,412.143979 615.903052,406.954889 607.433105,408.895308 L607.11943,408.970443 L528.205059,428.699035 C525.110179,429.472755 521.854663,429.303655 518.8566,428.21345 C510.654588,425.2309 506.374355,416.239137 509.179282,408.016829 L509.287794,407.708866 L619.240826,105.338028 C619.390133,104.927433 619.602017,104.552495 619.863373,104.222391 L620.061293,103.991099 L620.061293,103.991099 L620.247715,103.802308 Z M594.999,612 L594.999,636 L420,636.0003 C413.372583,636.0003 408,630.627717 408,624.0003 C408,617.372883 413.372583,612.0003 420,612.0003 L594.999,612 Z M594.999,548 L594.999,572 L420,572.0003 C413.372583,572.0003 408,566.627717 408,560.0003 C408,553.372883 413.372583,548.0003 420,548.0003 L594.999,548 Z M594.999,484 L594.999,508 L420,508.0003 C413.372583,508.0003 408,502.627717 408,496.0003 C408,489.372883 413.372583,484.0003 420,484.0003 L594.999,484 Z M476.802497,420.0003 C478.078299,428.83075 481.800796,437.155829 487.509996,443.989966 L487.152716,443.999348 L291,444.0003 C284.372583,444.0003 279,438.627717 279,432.0003 C279,425.372883 284.372583,420.0003 291,420.0003 L476.802497,420.0003 Z M494.041,356 L485.313,380 L316.6,380.0003 C309.972583,380.0003 304.6,374.627717 304.6,368.0003 C304.6,361.372883 309.972583,356.0003 316.6,356.0003 L494.041,356 Z M517.313,292 L508.586,316 L342.2,316.0003 C335.572583,316.0003 330.2,310.627717 330.2,304.0003 C330.2,297.372883 335.572583,292.0003 342.2,292.0003 L517.313,292 Z M540.586,228 L531.859,252 L367.8,252.0003 C361.172583,252.0003 355.8,246.627717 355.8,240.0003 C355.8,233.372883 361.172583,228.0003 367.8,228.0003 L540.586,228 Z M563.859,164 L555.132,188 L393.4,188.0003 C386.772583,188.0003 381.4,182.627717 381.4,176.0003 C381.4,169.372883 386.772583,164.0003 393.4,164.0003 L563.859,164 Z M587.132,100 L578.404,124 L419,124.0003 C412.372583,124.0003 407,118.627717 407,112.0003 C407,105.372883 412.372583,100.0003 419,100.0003 L587.132,100 Z" id="Shape" fill="#FFFFFF"></path>
        <path d="M322.772,882 L322.772,786.216 L358.652,786.216 L358.652,774.36 L273.788,774.36 L273.788,786.216 L309.668,786.216 L309.668,882 L322.772,882 Z M402.332,913.2 L440.396,803.064 L438.992,800.88 L428.228,800.88 L404.516,871.08 L401.396,871.08 L377.684,800.88 L366.92,800.88 L365.516,803.064 L392.816,882 L400.616,882 L390.164,911.016 L391.568,913.2 L402.332,913.2 Z M470.66,882 L470.66,836.136 L523.076,836.136 L523.076,824.28 L470.66,824.28 L470.66,786.216 L527.756,786.216 L527.756,774.36 L457.556,774.36 L457.556,882 L470.66,882 Z M605.288,882 C621.2,882 629.156,874.044 629.156,858.132 L629.156,858.132 L629.156,798.228 C629.156,782.316 621.2,774.36 605.288,774.36 L605.288,774.36 L568.784,774.36 C552.872,774.36 544.916,782.316 544.916,798.228 L544.916,798.228 L544.916,858.132 C544.916,874.044 552.872,882 568.784,882 L568.784,882 L605.288,882 Z M605.444,870.144 L568.628,870.144 C561.556,870.144 558.02,866.608 558.02,859.536 L558.02,859.536 L558.02,796.824 C558.02,789.752 561.556,786.216 568.628,786.216 L568.628,786.216 L605.444,786.216 C612.516,786.216 616.052,789.752 616.052,796.824 L616.052,796.824 L616.052,859.536 C616.052,866.608 612.516,870.144 605.444,870.144 L605.444,870.144 Z M668.78,882 L668.78,794.64 L725.408,882 L739.916,882 L739.916,774.36 L726.812,774.36 L726.812,861.72 L670.184,774.36 L655.676,774.36 L655.676,882 L668.78,882 Z" id="TyFON" fill="#FFFFFF" fill-rule="nonzero"></path>
    </g>
</svg>