<?xml version="1.0" encoding="UTF-8"?>
<svg width="1024px" height="1024px" viewBox="0 0 1024 1024" version="1.1" xmlns="http://www.w3.org/2000/svg" xmlns:xlink="http://www.w3.org/1999/xlink">
    <title>tyfon-dark</title>
    <g id="tyfon-dark" stroke="none" stroke-width="1" fill="none" fill-rule="evenodd">
        <path d="M620.247715,244.802308 L620.398041,244.666887 L620.398041,244.666887 L620.460739,244.614311 C620.507276,244.57609 620.554657,244.538932 620.602843,244.502864 C620.723481,244.412587 620.848986,244.329237 620.97885,244.253165 L621.229865,244.117891 L621.229865,244.117891 L621.490835,244.000441 L621.490835,244.000441 L621.613149,243.952904 L621.613149,243.952904 L621.847867,243.874272 L621.847867,243.874272 L621.995722,243.832875 L621.995722,243.832875 L622.158857,243.794208 L622.158857,243.794208 L622.435106,243.74493 L622.435106,243.74493 L622.612535,243.723715 L622.612535,243.723715 C622.74105,243.711287 622.869988,243.705 623,243.705 C625.142195,243.705 626.891079,245.388968 626.995105,247.50536 L627,247.705 L627,460.507878 C627,461.816066 627.160438,463.119318 627.47772,464.388448 C629.594763,472.856621 638.096948,478.045711 646.566895,476.105292 L646.88057,476.030158 L725.794941,456.301565 C728.889821,455.527845 732.145337,455.696945 735.1434,456.78715 C743.345412,459.7697 747.625645,468.761464 744.820718,476.983771 L744.712206,477.291734 L634.759174,779.662572 C634.184353,781.243329 632.682026,782.2956 631,782.2956 C628.857805,782.2956 627.108921,780.611632 627.004895,778.495241 L627,778.2956 L627,565.492723 C627,564.348057 626.877165,563.207172 626.633902,562.089619 L626.52228,561.612153 C624.405237,553.143979 615.903052,547.954889 607.433105,549.895308 L607.11943,549.970443 L528.205059,569.699035 C525.110179,570.472755 521.854663,570.303655 518.8566,569.21345 C510.654588,566.2309 506.374355,557.239137 509.179282,549.016829 L509.287794,548.708866 L619.240826,246.338028 C619.390133,245.927433 619.602017,245.552495 619.863373,245.222391 L620.061293,244.991099 L620.061293,244.991099 L620.247715,244.802308 Z M594.999,753 L594.999,777 L420,777.0003 C413.372583,777.0003 408,771.627717 408,765.0003 C408,758.372883 413.372583,753.0003 420,753.0003 L594.999,753 Z M594.999,689 L594.999,713 L420,713.0003 C413.372583,713.0003 408,707.627717 408,701.0003 C408,694.372883 413.372583,689.0003 420,689.0003 L594.999,689 Z M594.999,625 L594.999,649 L420,649.0003 C413.372583,649.0003 408,643.627717 408,637.0003 C408,630.372883 413.372583,625.0003 420,625.0003 L594.999,625 Z M476.802497,561.0003 C478.078299,569.83075 481.800796,578.155829 487.509996,584.989966 L487.152716,584.999348 L291,585.0003 C284.372583,585.0003 279,579.627717 279,573.0003 C279,566.372883 284.372583,561.0003 291,561.0003 L476.802497,561.0003 Z M494.041,497 L485.313,521 L316.6,521.0003 C309.972583,521.0003 304.6,515.627717 304.6,509.0003 C304.6,502.372883 309.972583,497.0003 316.6,497.0003 L494.041,497 Z M517.313,433 L508.586,457 L342.2,457.0003 C335.572583,457.0003 330.2,451.627717 330.2,445.0003 C330.2,438.372883 335.572583,433.0003 342.2,433.0003 L517.313,433 Z M540.586,369 L531.859,393 L367.8,393.0003 C361.172583,393.0003 355.8,387.627717 355.8,381.0003 C355.8,374.372883 361.172583,369.0003 367.8,369.0003 L540.586,369 Z M563.859,305 L555.132,329 L393.4,329.0003 C386.772583,329.0003 381.4,323.627717 381.4,317.0003 C381.4,310.372883 386.772583,305.0003 393.4,305.0003 L563.859,305 Z M587.132,241 L578.404,265 L419,265.0003 C412.372583,265.0003 407,259.627717 407,253.0003 C407,246.372883 412.372583,241.0003 419,241.0003 L587.132,241 Z" id="Shape" fill="#FFFFFF"></path>
    </g>
</svg>