<?xml version="1.0" encoding="UTF-8"?>
<svg width="3000px" height="1500px" viewBox="0 0 3000 1500" version="1.1" xmlns="http://www.w3.org/2000/svg" xmlns:xlink="http://www.w3.org/1999/xlink">
    <title>tyfon-banner-dark</title>
    <g id="tyfon-banner-dark" stroke="none" stroke-width="1" fill="none" fill-rule="evenodd">
        <path d="M1610.24772,346.802308 L1610.39804,346.666887 L1610.39804,346.666887 L1610.46074,346.614311 C1610.50728,346.57609 1610.55466,346.538932 1610.60284,346.502864 C1610.72348,346.412587 1610.84899,346.329237 1610.97885,346.253165 L1611.22987,346.117891 L1611.22987,346.117891 L1611.49083,346.000441 L1611.49083,346.000441 L1611.61315,345.952904 L1611.61315,345.952904 L1611.84787,345.874272 L1611.84787,345.874272 L1611.99572,345.832875 L1611.99572,345.832875 L1612.15886,345.794208 L1612.15886,345.794208 L1612.43511,345.74493 L1612.43511,345.74493 L1612.61253,345.723715 L1612.61253,345.723715 C1612.74105,345.711287 1612.86999,345.705 1613,345.705 C1615.1422,345.705 1616.89108,347.388968 1616.9951,349.50536 L1617,349.705 L1617,562.507878 C1617,563.816066 1617.16044,565.119318 1617.47772,566.388448 C1619.59476,574.856621 1628.09695,580.045711 1636.5669,578.105292 L1636.88057,578.030158 L1715.79494,558.301565 C1718.88982,557.527845 1722.14534,557.696945 1725.1434,558.78715 C1733.34541,561.7697 1737.62564,570.761464 1734.82072,578.983771 L1734.71221,579.291734 L1624.75917,881.662572 C1624.18435,883.243329 1622.68203,884.2956 1621,884.2956 C1618.8578,884.2956 1617.10892,882.611632 1617.0049,880.495241 L1617,880.2956 L1617,667.492723 C1617,666.348057 1616.87716,665.207172 1616.6339,664.089619 L1616.52228,663.612153 C1614.40524,655.143979 1605.90305,649.954889 1597.4331,651.895308 L1597.11943,651.970443 L1518.20506,671.699035 C1515.11018,672.472755 1511.85466,672.303655 1508.8566,671.21345 C1500.65459,668.2309 1496.37436,659.239137 1499.17928,651.016829 L1499.28779,650.708866 L1609.24083,348.338028 C1609.39013,347.927433 1609.60202,347.552495 1609.86337,347.222391 L1610.06129,346.991099 L1610.06129,346.991099 L1610.24772,346.802308 Z M1584.999,855 L1584.999,879 L1410,879.0003 C1403.37258,879.0003 1398,873.627717 1398,867.0003 C1398,860.372883 1403.37258,855.0003 1410,855.0003 L1584.999,855 Z M1584.999,791 L1584.999,815 L1410,815.0003 C1403.37258,815.0003 1398,809.627717 1398,803.0003 C1398,796.372883 1403.37258,791.0003 1410,791.0003 L1584.999,791 Z M1584.999,727 L1584.999,751 L1410,751.0003 C1403.37258,751.0003 1398,745.627717 1398,739.0003 C1398,732.372883 1403.37258,727.0003 1410,727.0003 L1584.999,727 Z M1466.8025,663.0003 C1468.0783,671.83075 1471.8008,680.155829 1477.51,686.989966 L1477.15272,686.999348 L1281,687.0003 C1274.37258,687.0003 1269,681.627717 1269,675.0003 C1269,668.372883 1274.37258,663.0003 1281,663.0003 L1466.8025,663.0003 Z M1484.041,599 L1475.313,623 L1306.6,623.0003 C1299.97258,623.0003 1294.6,617.627717 1294.6,611.0003 C1294.6,604.372883 1299.97258,599.0003 1306.6,599.0003 L1484.041,599 Z M1507.313,535 L1498.586,559 L1332.2,559.0003 C1325.57258,559.0003 1320.2,553.627717 1320.2,547.0003 C1320.2,540.372883 1325.57258,535.0003 1332.2,535.0003 L1507.313,535 Z M1530.586,471 L1521.859,495 L1357.8,495.0003 C1351.17258,495.0003 1345.8,489.627717 1345.8,483.0003 C1345.8,476.372883 1351.17258,471.0003 1357.8,471.0003 L1530.586,471 Z M1553.859,407 L1545.132,431 L1383.4,431.0003 C1376.77258,431.0003 1371.4,425.627717 1371.4,419.0003 C1371.4,412.372883 1376.77258,407.0003 1383.4,407.0003 L1553.859,407 Z M1577.132,343 L1568.404,367 L1409,367.0003 C1402.37258,367.0003 1397,361.627717 1397,355.0003 C1397,348.372883 1402.37258,343.0003 1409,343.0003 L1577.132,343 Z" id="Shape" fill="#FFFFFF"></path>
        <path d="M1312.772,1125 L1312.772,1029.216 L1348.652,1029.216 L1348.652,1017.36 L1263.788,1017.36 L1263.788,1029.216 L1299.668,1029.216 L1299.668,1125 L1312.772,1125 Z M1392.332,1156.2 L1430.396,1046.064 L1428.992,1043.88 L1418.228,1043.88 L1394.516,1114.08 L1391.396,1114.08 L1367.684,1043.88 L1356.92,1043.88 L1355.516,1046.064 L1382.816,1125 L1390.616,1125 L1380.164,1154.016 L1381.568,1156.2 L1392.332,1156.2 Z M1460.66,1125 L1460.66,1079.136 L1513.076,1079.136 L1513.076,1067.28 L1460.66,1067.28 L1460.66,1029.216 L1517.756,1029.216 L1517.756,1017.36 L1447.556,1017.36 L1447.556,1125 L1460.66,1125 Z M1595.288,1125 C1611.2,1125 1619.156,1117.044 1619.156,1101.132 L1619.156,1101.132 L1619.156,1041.228 C1619.156,1025.316 1611.2,1017.36 1595.288,1017.36 L1595.288,1017.36 L1558.784,1017.36 C1542.872,1017.36 1534.916,1025.316 1534.916,1041.228 L1534.916,1041.228 L1534.916,1101.132 C1534.916,1117.044 1542.872,1125 1558.784,1125 L1558.784,1125 L1595.288,1125 Z M1595.444,1113.144 L1558.628,1113.144 C1551.556,1113.144 1548.02,1109.608 1548.02,1102.536 L1548.02,1102.536 L1548.02,1039.824 C1548.02,1032.752 1551.556,1029.216 1558.628,1029.216 L1558.628,1029.216 L1595.444,1029.216 C1602.516,1029.216 1606.052,1032.752 1606.052,1039.824 L1606.052,1039.824 L1606.052,1102.536 C1606.052,1109.608 1602.516,1113.144 1595.444,1113.144 L1595.444,1113.144 Z M1658.78,1125 L1658.78,1037.64 L1715.408,1125 L1729.916,1125 L1729.916,1017.36 L1716.812,1017.36 L1716.812,1104.72 L1660.184,1017.36 L1645.676,1017.36 L1645.676,1125 L1658.78,1125 Z" id="TyFON" fill="#FFFFFF" fill-rule="nonzero"></path>
    </g>
</svg>